<svg width="752" height="573" viewBox="0 0 752 573" fill="none" xmlns="http://www.w3.org/2000/svg">
<path fill-rule="evenodd" clip-rule="evenodd" d="M481.067 165.269C547.503 188.229 641.352 163.453 678.472 223.144C714.544 281.15 661.894 354.772 638.913 419.097C619.135 474.459 603.804 536.671 554.838 569.206C508.07 600.281 446.159 572.455 391.15 583.721C326.541 596.954 271.069 654.799 206.685 640.511C135.932 624.811 54.6133 577.774 42.4187 506.333C29.7861 432.327 114.126 380.717 151.195 315.43C174.358 274.635 187.147 230.599 218.692 195.877C253.495 157.569 289.586 112.512 340.994 106.515C392.546 100.501 432.011 148.316 481.067 165.269Z" fill="url(#paint0_linear)"/>
<defs>
<linearGradient id="paint0_linear" x1="591.5" y1="248.5" x2="265.5" y2="681" gradientUnits="userSpaceOnUse">
<stop stop-color="white"/>
<stop offset="1" stop-color="#C4C4C4" stop-opacity="0"/>
</linearGradient>
</defs>
</svg>
