<svg width="569" height="577" viewBox="0 0 569 577" fill="none" xmlns="http://www.w3.org/2000/svg">
<path fill-rule="evenodd" clip-rule="evenodd" d="M303.316 25.537C371.71 3.51969 450.361 -15.5226 513.487 18.7956C578.537 54.1602 626.989 128.354 628.604 202.379C630.144 272.944 557.335 318.197 521.344 378.913C495.601 422.342 485.405 473.293 447.949 507.143C407.345 543.838 357.974 573.175 303.316 575.953C247.12 578.808 191.235 557.922 147.593 522.405C105.406 488.072 90.677 433.98 68.075 384.506C41.9234 327.262 -18.367 269.541 5.46198 211.293C29.6213 152.237 118.68 162.226 172.821 128.461C221.008 98.4094 249.258 42.9389 303.316 25.537Z" fill="url(#paint0_linear)"/>
<defs>
<linearGradient id="paint0_linear" x1="382" y1="604.5" x2="629" y2="-2.24382e-05" gradientUnits="userSpaceOnUse">
<stop stop-color="white"/>
<stop offset="1" stop-color="white" stop-opacity="0"/>
</linearGradient>
</defs>
</svg>
